<svg width="179" height="56" viewBox="0 0 179 56" fill="none" xmlns="http://www.w3.org/2000/svg">
<path d="M77.3716 17.1349C77.3716 17.0119 77.3966 16.8951 77.4445 16.7867C77.4924 16.6783 77.557 16.5845 77.6383 16.5053C77.7196 16.426 77.8154 16.3614 77.9238 16.3135C78.0321 16.2655 78.1468 16.2405 78.2718 16.2405C78.3968 16.2405 78.5114 16.2655 78.6198 16.3135C78.7281 16.3614 78.8219 16.426 78.9011 16.5053C78.9803 16.5845 79.0449 16.6783 79.0928 16.7867C79.1407 16.8951 79.1637 17.0098 79.1637 17.1349C79.1637 17.26 79.1386 17.3746 79.0928 17.483C79.0449 17.5914 78.9803 17.6853 78.9011 17.7686C78.8219 17.85 78.7281 17.9146 78.6198 17.9625C78.5114 18.0105 78.3968 18.0334 78.2718 18.0334C78.1468 18.0334 78.0321 18.0084 77.9238 17.9625C77.8154 17.9146 77.7217 17.85 77.6383 17.7686C77.557 17.6873 77.4924 17.5914 77.4445 17.483C77.3966 17.3746 77.3716 17.26 77.3716 17.1349ZM75.3086 17.1349C75.3086 17.0119 75.3336 16.8951 75.3794 16.7867C75.4274 16.6783 75.492 16.5845 75.5753 16.5053C75.6566 16.426 75.7524 16.3614 75.8608 16.3135C75.9692 16.2655 76.0838 16.2405 76.2088 16.2405C76.3338 16.2405 76.4484 16.2655 76.5568 16.3135C76.6652 16.3614 76.7589 16.426 76.8381 16.5053C76.9173 16.5845 76.9819 16.6783 77.0298 16.7867C77.0778 16.8951 77.1007 17.0098 77.1007 17.1349C77.1007 17.26 77.0757 17.3746 77.0298 17.483C76.9819 17.5914 76.9173 17.6853 76.8381 17.7686C76.7589 17.85 76.6652 17.9146 76.5568 17.9625C76.4484 18.0105 76.3338 18.0334 76.2088 18.0334C76.0838 18.0334 75.9692 18.0084 75.8608 17.9625C75.7524 17.9146 75.6587 17.85 75.5753 17.7686C75.4941 17.6873 75.4295 17.5914 75.3794 17.483C75.3315 17.3746 75.3086 17.26 75.3086 17.1349ZM81.5017 12.3669C81.5225 12.442 81.5371 12.5274 81.5475 12.6192C81.558 12.7109 81.5621 12.8193 81.5621 12.9423C81.5621 13.2905 81.4975 13.6115 81.3663 13.9055C81.2371 14.1995 81.0078 14.4517 80.6807 14.6644C80.3535 14.877 79.9117 15.0417 79.3554 15.1626C78.799 15.2836 78.0967 15.3419 77.2445 15.3419C76.6964 15.3419 76.213 15.3065 75.7941 15.2335C75.3753 15.1626 75.0106 15.0605 74.7001 14.9271C74.3896 14.7957 74.1312 14.6352 73.9208 14.4496C73.7103 14.2641 73.5436 14.0577 73.4165 13.8325C73.2915 13.6074 73.1998 13.3635 73.1477 13.1008C73.0935 12.8381 73.0664 12.5671 73.0664 12.2814V10.1758H74.721V12.2272C74.721 12.5024 74.7647 12.7443 74.8502 12.9507C74.9356 13.1571 75.0794 13.3301 75.2794 13.4698C75.4795 13.6095 75.742 13.7137 76.065 13.7846C76.388 13.8555 76.7881 13.8888 77.2632 13.8888C77.6591 13.8888 78.0009 13.8701 78.2905 13.8346C78.5802 13.7992 78.8261 13.7512 79.0282 13.6908C79.2303 13.6303 79.395 13.5636 79.5221 13.4865C79.6513 13.4114 79.7492 13.3343 79.818 13.255C79.8888 13.1779 79.9368 13.1008 79.9618 13.0278C79.9868 12.9548 80.0014 12.8881 80.0014 12.8339C80.0014 12.7213 79.9451 12.6213 79.8305 12.5316C79.7159 12.442 79.5554 12.3565 79.347 12.2731C79.1386 12.1918 78.8865 12.1105 78.5927 12.0292C78.2989 11.9479 77.9696 11.8645 77.6091 11.7769V10.2654C77.8884 10.353 78.1634 10.4364 78.4302 10.5135C78.699 10.5907 78.9574 10.6615 79.2074 10.7199C79.4575 10.7804 79.695 10.8262 79.9243 10.8617C80.1514 10.895 80.366 10.9117 80.5661 10.9117H82.1539C82.2185 10.9117 82.279 10.918 82.3373 10.9305C82.3957 10.943 82.4478 10.9722 82.4936 11.018C82.5394 11.0639 82.5749 11.1327 82.602 11.2244C82.627 11.3162 82.6415 11.4433 82.6415 11.6018C82.6415 11.8895 82.602 12.0875 82.5249 12.198C82.4478 12.3085 82.3248 12.3627 82.156 12.3627H81.5017V12.3669Z" fill="#130F26"/>
<path d="M82.1558 12.3672C82.0871 12.3672 82.0246 12.3609 81.9641 12.3484C81.9037 12.3359 81.8516 12.3067 81.8078 12.2608C81.7641 12.215 81.7287 12.1441 81.7036 12.0503C81.6766 11.9565 81.6641 11.8272 81.6641 11.6625C81.6641 11.3748 81.7037 11.1767 81.7808 11.0725C81.8579 10.9662 81.9829 10.9141 82.1558 10.9141H84.0209C84.0896 10.9141 84.1521 10.9203 84.2126 10.9328C84.273 10.9453 84.3251 10.9745 84.3709 11.0204C84.4168 11.0663 84.4543 11.1351 84.4814 11.2268C84.5085 11.3185 84.5231 11.4457 84.5231 11.6041C84.5231 11.8918 84.4835 12.0899 84.4022 12.2004C84.323 12.3109 84.1938 12.3651 84.0188 12.3651H82.1538L82.1558 12.3672Z" fill="#130F26"/>
<path d="M84.0191 12.3672C83.9504 12.3672 83.8878 12.3609 83.8274 12.3484C83.767 12.3359 83.7149 12.3067 83.6711 12.2608C83.6274 12.215 83.5919 12.1441 83.5669 12.0503C83.5419 11.9565 83.5273 11.8272 83.5273 11.6625C83.5273 11.3748 83.5669 11.1767 83.644 11.0725C83.7211 10.9662 83.8462 10.9141 84.0191 10.9141H85.8841C85.9529 10.9141 86.0154 10.9203 86.0759 10.9328C86.1363 10.9453 86.1884 10.9745 86.2342 11.0204C86.2801 11.0663 86.3176 11.1351 86.3447 11.2268C86.3718 11.3185 86.3863 11.4457 86.3863 11.6041C86.3863 11.8918 86.3468 12.0899 86.2655 12.2004C86.1863 12.3109 86.0571 12.3651 85.8821 12.3651H84.017L84.0191 12.3672Z" fill="#130F26"/>
<path d="M85.8825 12.3671C85.8137 12.3671 85.7512 12.3608 85.6908 12.3483C85.6303 12.3358 85.5782 12.3066 85.5345 12.2608C85.4907 12.2149 85.4553 12.144 85.4303 12.0502C85.4032 11.9564 85.3907 11.8271 85.3907 11.6624C85.3907 11.3747 85.4303 11.1767 85.5074 11.0724C85.5845 10.9661 85.7095 10.914 85.8825 10.914H87.7475C87.8163 10.914 87.8788 10.9202 87.9392 10.9327C87.9996 10.9452 88.0517 10.9744 88.0976 11.0203C88.1434 11.0662 88.1809 11.135 88.208 11.2267C88.2351 11.3184 88.2497 11.4456 88.2497 11.604C88.2497 11.8917 88.2101 12.0898 88.1288 12.2003C88.0496 12.3108 87.9204 12.365 87.7454 12.365H85.8804L85.8825 12.3671Z" fill="#130F26"/>
<path d="M87.7457 12.3672C87.6769 12.3672 87.6144 12.3609 87.554 12.3484C87.4935 12.3359 87.4415 12.3067 87.3977 12.2608C87.3539 12.215 87.3185 12.1441 87.2935 12.0503C87.2664 11.9565 87.2539 11.8272 87.2539 11.6625C87.2539 11.3748 87.2935 11.1767 87.3706 11.0725C87.4477 10.9662 87.5727 10.9141 87.7457 10.9141H89.6107C89.6795 10.9141 89.742 10.9203 89.8024 10.9328C89.8628 10.9453 89.9149 10.9745 89.9608 11.0204C90.0066 11.0663 90.0441 11.1351 90.0712 11.2268C90.0983 11.3185 90.1129 11.4457 90.1129 11.6041C90.1129 11.8918 90.0733 12.0899 89.992 12.2004C89.9129 12.3109 89.7837 12.3651 89.6086 12.3651H87.7436L87.7457 12.3672Z" fill="#130F26"/>
<path d="M89.609 12.3672C89.5402 12.3672 89.4777 12.3609 89.4173 12.3484C89.3568 12.3359 89.3047 12.3067 89.261 12.2608C89.2172 12.215 89.1818 12.1441 89.1568 12.0503C89.1318 11.9565 89.1172 11.8272 89.1172 11.6625C89.1172 11.3748 89.1568 11.1767 89.2339 11.0725C89.311 10.9662 89.436 10.9141 89.609 10.9141H91.474C91.5428 10.9141 91.6053 10.9203 91.6657 10.9328C91.7261 10.9453 91.7782 10.9745 91.8241 11.0204C91.8699 11.0663 91.9074 11.1351 91.9345 11.2268C91.9616 11.3185 91.9762 11.4457 91.9762 11.6041C91.9762 11.8918 91.9366 12.0899 91.8553 12.2004C91.7761 12.3109 91.6469 12.3651 91.4719 12.3651H89.6069L89.609 12.3672Z" fill="#130F26"/>
<path d="M91.4762 12.3672C91.4074 12.3672 91.3449 12.3609 91.2844 12.3484C91.224 12.3359 91.1719 12.3067 91.1282 12.2608C91.0844 12.215 91.049 12.1441 91.024 12.0503C90.9969 11.9565 90.9844 11.8272 90.9844 11.6625C90.9844 11.3748 91.024 11.1767 91.1011 11.0725C91.1782 10.9662 91.3032 10.9141 91.4762 10.9141H93.3412C93.4099 10.9141 93.4725 10.9203 93.5329 10.9328C93.5933 10.9453 93.6454 10.9745 93.6913 11.0204C93.7371 11.0663 93.7746 11.1351 93.8017 11.2268C93.8288 11.3185 93.8434 11.4457 93.8434 11.6041C93.8434 11.8918 93.8038 12.0899 93.7225 12.2004C93.6433 12.3109 93.5141 12.3651 93.3391 12.3651H91.4741L91.4762 12.3672Z" fill="#130F26"/>
<path d="M94.8023 14.4539C94.8023 14.3309 94.8252 14.2141 94.871 14.1057C94.9169 13.9973 94.9815 13.9035 95.0628 13.8242C95.144 13.745 95.2399 13.6804 95.3482 13.6324C95.4566 13.5845 95.5712 13.5595 95.6962 13.5595C95.8213 13.5595 95.9359 13.5845 96.0442 13.6324C96.1526 13.6804 96.2464 13.745 96.3297 13.8242C96.411 13.9035 96.4777 13.9973 96.5235 14.1057C96.5714 14.2141 96.5964 14.3288 96.5964 14.4539C96.5964 14.579 96.5714 14.6936 96.5235 14.802C96.4756 14.9104 96.411 15.0043 96.3297 15.0876C96.2484 15.169 96.1526 15.2336 96.0442 15.2815C95.9359 15.3295 95.8213 15.3524 95.6962 15.3524C95.5712 15.3524 95.4566 15.3295 95.3482 15.2815C95.2399 15.2336 95.1461 15.169 95.0628 15.0876C94.9815 15.0063 94.9169 14.9104 94.871 14.802C94.8252 14.6936 94.8023 14.579 94.8023 14.4539ZM94.1021 10.9159C94.2459 10.9159 94.3668 10.9076 94.4647 10.8888C94.5626 10.8701 94.6418 10.8367 94.7043 10.7846C94.7669 10.7325 94.8106 10.6574 94.8356 10.5594C94.8606 10.4615 94.8752 10.3343 94.8752 10.1779V7.33008H96.5298V10.0341C96.5298 10.1946 96.5464 10.3301 96.5777 10.4427C96.6089 10.5553 96.6652 10.6449 96.7423 10.7158C96.8194 10.7867 96.9278 10.8367 97.0632 10.868C97.1987 10.8993 97.3695 10.9159 97.5717 10.9159C97.6363 10.9159 97.6967 10.9222 97.7571 10.9347C97.8176 10.9472 97.8697 10.9764 97.9134 11.0223C97.9572 11.0681 97.9926 11.1369 98.0218 11.2287C98.0489 11.3204 98.0635 11.4476 98.0635 11.606C98.0635 11.8937 98.0239 12.0918 97.9426 12.2023C97.8634 12.3128 97.7384 12.367 97.5717 12.367C97.4487 12.367 97.3237 12.3586 97.2008 12.342C97.0778 12.3253 96.9569 12.294 96.8403 12.2481C96.7236 12.2023 96.6131 12.1356 96.5048 12.0501C96.3964 11.9646 96.2985 11.852 96.2109 11.7103C96.1026 11.8624 95.9796 11.9813 95.84 12.0668C95.7004 12.1522 95.5504 12.2169 95.3899 12.2627C95.2295 12.3065 95.0628 12.3336 94.8898 12.3461C94.7168 12.3586 94.5439 12.3649 94.3709 12.3649H93.3394C93.2707 12.3649 93.2082 12.3586 93.1477 12.3461C93.0873 12.3336 93.0352 12.3044 92.9914 12.2586C92.9477 12.2127 92.9123 12.1418 92.8872 12.048C92.8622 11.9542 92.8477 11.8249 92.8477 11.6602C92.8477 11.3725 92.8872 11.1745 92.9643 11.0702C93.0415 10.9639 93.1665 10.9118 93.3394 10.9118H94.1L94.1021 10.9159Z" fill="#130F26"/>
<path d="M97.5699 12.3672C97.5011 12.3672 97.4386 12.3609 97.3782 12.3484C97.3178 12.3359 97.2657 12.3067 97.2219 12.2608C97.1781 12.215 97.1427 12.1441 97.1177 12.0503C97.0927 11.9565 97.0781 11.8272 97.0781 11.6625C97.0781 11.3748 97.1177 11.1767 97.1948 11.0725C97.2719 10.9662 97.397 10.9141 97.5699 10.9141H99.4349C99.5037 10.9141 99.5662 10.9203 99.6266 10.9328C99.6871 10.9453 99.7392 10.9745 99.785 11.0204C99.8308 11.0663 99.8684 11.1351 99.8955 11.2268C99.9225 11.3185 99.9371 11.4457 99.9371 11.6041C99.9371 11.8918 99.8975 12.0899 99.8163 12.2004C99.7371 12.3109 99.6079 12.3651 99.4328 12.3651H97.5678L97.5699 12.3672Z" fill="#130F26"/>
<path d="M104.167 5.14507C104.167 5.02207 104.192 4.90532 104.238 4.79691C104.286 4.6885 104.351 4.59468 104.434 4.51129C104.515 4.42998 104.611 4.36327 104.72 4.3174C104.828 4.26945 104.943 4.24443 105.068 4.24443C105.193 4.24443 105.307 4.26945 105.416 4.3174C105.524 4.36535 105.618 4.42998 105.697 4.51129C105.776 4.5926 105.841 4.6885 105.889 4.79691C105.937 4.90532 105.959 5.01998 105.959 5.14507C105.959 5.27016 105.934 5.38482 105.889 5.49323C105.841 5.60164 105.776 5.69546 105.697 5.77885C105.618 5.86016 105.524 5.92479 105.416 5.97065C105.307 6.01652 105.193 6.03945 105.068 6.03945C104.943 6.03945 104.828 6.01652 104.72 5.97065C104.611 5.92479 104.517 5.86016 104.434 5.77885C104.353 5.69755 104.286 5.60164 104.238 5.49323C104.19 5.38482 104.167 5.27016 104.167 5.14507ZM105.097 8.52871C104.83 8.52871 104.572 8.59126 104.326 8.71843C104.08 8.84352 103.849 9.01447 103.63 9.23129C103.411 9.44811 103.211 9.70037 103.028 9.99016C102.844 10.28 102.677 10.5885 102.529 10.9158H106.347V10.3154C106.347 10.1027 106.328 9.89218 106.293 9.67953C106.257 9.46688 106.193 9.27507 106.099 9.10412C106.005 8.93317 105.878 8.79348 105.716 8.68716C105.553 8.58083 105.347 8.52871 105.095 8.52871M105.241 7.04642C105.68 7.04642 106.07 7.1173 106.412 7.26324C106.753 7.40917 107.043 7.6114 107.278 7.87825C107.514 8.14511 107.695 8.46617 107.818 8.84143C107.941 9.2167 108.004 9.63992 108.004 10.1069V12.3668H99.4371C99.3683 12.3668 99.3058 12.3606 99.2454 12.3481C99.185 12.3356 99.1329 12.3064 99.0891 12.2605C99.0453 12.2147 99.0099 12.1438 98.9849 12.05C98.9599 11.9561 98.9453 11.8269 98.9453 11.6622C98.9453 11.3745 98.9849 11.1764 99.062 11.0722C99.1391 10.9659 99.2641 10.9137 99.4371 10.9137H100.917V3.59814H102.571V8.60585C102.736 8.35359 102.919 8.13052 103.123 7.93663C103.328 7.74274 103.542 7.58013 103.771 7.44878C103.999 7.31744 104.238 7.21737 104.488 7.14857C104.738 7.07977 104.988 7.04642 105.241 7.04642Z" fill="#130F26"/>
<path d="M110.95 9.8112C110.95 10.1948 111.035 10.4742 111.204 10.6514C111.375 10.8265 111.602 10.9161 111.889 10.9161H112.729V9.93212C112.729 9.72781 112.715 9.54017 112.683 9.36505C112.654 9.19201 112.604 9.0419 112.537 8.9189C112.469 8.7959 112.377 8.69791 112.262 8.62911C112.148 8.56031 112.002 8.52487 111.831 8.52487C111.675 8.52487 111.541 8.55614 111.429 8.61869C111.316 8.68123 111.227 8.76879 111.156 8.88346C111.085 8.99812 111.035 9.13364 111 9.29208C110.966 9.45053 110.95 9.62565 110.95 9.81745M114.319 12.3672C114.259 12.8237 114.159 13.2345 114.017 13.6035C113.875 13.9704 113.656 14.2831 113.363 14.5416C113.069 14.8001 112.679 14.9982 112.192 15.1358C111.704 15.2734 111.085 15.3422 110.333 15.3422H109.943V13.8057H110.237C110.741 13.8057 111.145 13.7619 111.454 13.6743C111.762 13.5868 112.002 13.4742 112.173 13.3345C112.344 13.1969 112.462 13.0426 112.529 12.8738C112.596 12.7028 112.64 12.534 112.665 12.3672H111.879C111.504 12.3672 111.16 12.3213 110.847 12.2296C110.535 12.1378 110.266 11.9898 110.041 11.7855C109.816 11.5812 109.639 11.3164 109.514 10.987C109.389 10.6597 109.324 10.2594 109.324 9.78826C109.324 9.44427 109.38 9.10862 109.495 8.77713C109.61 8.44773 109.774 8.15378 109.993 7.89943C110.212 7.643 110.479 7.43869 110.8 7.28233C111.118 7.12597 111.487 7.04883 111.902 7.04883C112.365 7.04883 112.756 7.12805 113.073 7.28858C113.392 7.44911 113.648 7.67219 113.844 7.96406C114.04 8.25385 114.182 8.59992 114.267 9.00229C114.352 9.40466 114.396 9.84664 114.396 10.3303V10.9182H115.201C115.269 10.9182 115.332 10.9245 115.392 10.937C115.453 10.9495 115.505 10.9787 115.549 11.0246C115.592 11.0704 115.628 11.1392 115.653 11.231C115.678 11.3227 115.692 11.4499 115.692 11.6083C115.692 11.896 115.653 12.0941 115.576 12.2046C115.499 12.3151 115.374 12.3693 115.201 12.3693H114.319V12.3672Z" fill="#130F26"/>
<path d="M116.455 14.4539C116.455 14.3309 116.478 14.2141 116.524 14.1057C116.57 13.9973 116.634 13.9035 116.716 13.8242C116.797 13.745 116.893 13.6804 117.001 13.6324C117.109 13.5845 117.224 13.5595 117.349 13.5595C117.474 13.5595 117.589 13.5845 117.697 13.6324C117.805 13.6804 117.899 13.745 117.983 13.8242C118.064 13.9035 118.128 13.9973 118.176 14.1057C118.224 14.2141 118.249 14.3288 118.249 14.4539C118.249 14.579 118.224 14.6936 118.176 14.802C118.128 14.9104 118.064 15.0043 117.983 15.0876C117.901 15.169 117.805 15.2336 117.697 15.2815C117.589 15.3295 117.474 15.3524 117.349 15.3524C117.224 15.3524 117.109 15.3295 117.001 15.2815C116.893 15.2336 116.799 15.169 116.716 15.0876C116.634 15.0063 116.57 14.9104 116.524 14.802C116.478 14.6936 116.455 14.579 116.455 14.4539ZM116.653 10.9159V7.33008H118.308V12.367H115.203C115.134 12.367 115.071 12.3607 115.011 12.3482C114.951 12.3357 114.898 12.3065 114.855 12.2606C114.811 12.2148 114.776 12.1439 114.751 12.0501C114.726 11.9563 114.711 11.827 114.711 11.6623C114.711 11.3746 114.751 11.1765 114.828 11.0723C114.905 10.966 115.03 10.9139 115.203 10.9139H116.653V10.9159Z" fill="#130F26"/>
<path d="M121.46 12.3671H119.806V3.59838H121.46V12.3671ZM121.808 2.57891H119.352V1.69078H119.856C119.812 1.62198 119.781 1.5365 119.762 1.43226C119.743 1.32802 119.735 1.23838 119.735 1.16332C119.735 0.97152 119.768 0.802651 119.837 0.658799C119.906 0.514947 119.993 0.394029 120.102 0.296043C120.21 0.198057 120.333 0.125088 120.471 0.0750531C120.608 0.0250177 120.748 0 120.887 0C121.027 0 121.15 0.0125088 121.256 0.0354417C121.362 0.0604594 121.46 0.0875619 121.552 0.118834V0.952757C121.329 0.904806 121.173 0.881873 121.085 0.881873C120.917 0.881873 120.8 0.9194 120.731 0.992368C120.662 1.06742 120.629 1.16124 120.629 1.27799C120.629 1.39474 120.664 1.49064 120.737 1.57194C120.808 1.65117 120.946 1.69286 121.146 1.69286H121.81V2.58099L121.808 2.57891Z" fill="#130F26"/>
<path d="M127.239 5.14527C127.239 5.02226 127.264 4.90551 127.31 4.7971C127.358 4.68869 127.422 4.59488 127.504 4.51148C127.585 4.43018 127.681 4.36346 127.789 4.3176C127.897 4.26965 128.012 4.24463 128.137 4.24463C128.262 4.24463 128.377 4.26965 128.485 4.3176C128.593 4.36555 128.687 4.43018 128.766 4.51148C128.846 4.59279 128.91 4.68869 128.958 4.7971C129.006 4.90551 129.031 5.02018 129.031 5.14527C129.031 5.27035 129.006 5.38502 128.958 5.49343C128.91 5.60184 128.846 5.69565 128.766 5.77905C128.687 5.86035 128.593 5.92498 128.485 5.97085C128.377 6.01671 128.262 6.03965 128.137 6.03965C128.012 6.03965 127.897 6.01671 127.789 5.97085C127.681 5.92498 127.587 5.86035 127.504 5.77905C127.422 5.69774 127.358 5.60184 127.31 5.49343C127.262 5.38502 127.239 5.27035 127.239 5.14527ZM127.306 7.32806H128.96V10.0321C128.96 10.1968 128.987 10.3343 129.041 10.449C129.096 10.5637 129.166 10.6533 129.254 10.7221C129.341 10.7909 129.441 10.8389 129.554 10.8701C129.667 10.8993 129.777 10.916 129.889 10.916H130.004C130.065 10.916 130.121 10.9243 130.171 10.9431C130.223 10.9619 130.269 10.9952 130.308 11.0474C130.348 11.0995 130.381 11.1704 130.404 11.2579C130.427 11.3455 130.44 11.4622 130.44 11.6061C130.44 11.8708 130.402 12.0627 130.329 12.1857C130.256 12.3087 130.146 12.3691 130.002 12.3691H129.887C129.835 12.3691 129.771 12.3649 129.696 12.3566C129.621 12.3483 129.539 12.3316 129.452 12.3066C129.366 12.2816 129.281 12.2419 129.193 12.1898C129.108 12.1377 129.029 12.0689 128.956 11.9793C128.956 13.103 128.735 13.9431 128.291 14.504C127.847 15.0648 127.145 15.3441 126.187 15.3441H125.797V13.8097H125.995C126.218 13.8097 126.412 13.793 126.576 13.7618C126.741 13.7305 126.876 13.6617 126.985 13.5575C127.093 13.4532 127.172 13.301 127.224 13.1009C127.276 12.9007 127.301 12.636 127.301 12.3024V7.33014L127.306 7.32806Z" fill="#130F26"/>
<path d="M130 12.3672C129.931 12.3672 129.868 12.3609 129.808 12.3484C129.747 12.3359 129.695 12.3067 129.652 12.2608C129.608 12.215 129.572 12.1441 129.547 12.0503C129.522 11.9565 129.508 11.8272 129.508 11.6625C129.508 11.3748 129.547 11.1767 129.625 11.0725C129.702 10.9662 129.827 10.9141 130 10.9141H131.865C131.933 10.9141 131.996 10.9203 132.056 10.9328C132.117 10.9453 132.169 10.9745 132.215 11.0204C132.261 11.0663 132.298 11.1351 132.325 11.2268C132.352 11.3185 132.367 11.4457 132.367 11.6041C132.367 11.8918 132.327 12.0899 132.246 12.2004C132.167 12.3109 132.038 12.3651 131.863 12.3651H129.998L130 12.3672Z" fill="#130F26"/>
<path d="M131.867 12.3672C131.798 12.3672 131.736 12.3609 131.675 12.3484C131.615 12.3359 131.563 12.3067 131.519 12.2608C131.475 12.215 131.44 12.1441 131.415 12.0503C131.388 11.9565 131.375 11.8272 131.375 11.6625C131.375 11.3748 131.415 11.1767 131.492 11.0725C131.569 10.9662 131.694 10.9141 131.867 10.9141H133.732C133.801 10.9141 133.863 10.9203 133.924 10.9328C133.984 10.9453 134.036 10.9745 134.082 11.0204C134.128 11.0663 134.165 11.1351 134.192 11.2268C134.219 11.3185 134.234 11.4457 134.234 11.6041C134.234 11.8918 134.194 12.0899 134.113 12.2004C134.034 12.3109 133.905 12.3651 133.73 12.3651H131.865L131.867 12.3672Z" fill="#130F26"/>
<path d="M133.73 12.3672C133.661 12.3672 133.599 12.3609 133.538 12.3484C133.478 12.3359 133.426 12.3067 133.382 12.2608C133.338 12.215 133.303 12.1441 133.278 12.0503C133.253 11.9565 133.238 11.8272 133.238 11.6625C133.238 11.3748 133.278 11.1767 133.355 11.0725C133.432 10.9662 133.557 10.9141 133.73 10.9141H135.595C135.664 10.9141 135.726 10.9203 135.787 10.9328C135.847 10.9453 135.899 10.9745 135.945 11.0204C135.991 11.0663 136.029 11.1351 136.056 11.2268C136.083 11.3185 136.097 11.4457 136.097 11.6041C136.097 11.8918 136.058 12.0899 135.976 12.2004C135.897 12.3109 135.768 12.3651 135.593 12.3651H133.728L133.73 12.3672Z" fill="#130F26"/>
<path d="M135.593 12.3672C135.525 12.3672 135.462 12.3609 135.402 12.3484C135.341 12.3359 135.289 12.3067 135.245 12.2608C135.202 12.215 135.166 12.1441 135.141 12.0503C135.116 11.9565 135.102 11.8272 135.102 11.6625C135.102 11.3748 135.141 11.1767 135.218 11.0725C135.295 10.9662 135.42 10.9141 135.593 10.9141H137.458C137.527 10.9141 137.59 10.9203 137.65 10.9328C137.71 10.9453 137.763 10.9745 137.808 11.0204C137.854 11.0663 137.892 11.1351 137.919 11.2268C137.946 11.3185 137.961 11.4457 137.961 11.6041C137.961 11.8918 137.921 12.0899 137.84 12.2004C137.761 12.3109 137.631 12.3651 137.456 12.3651H135.591L135.593 12.3672Z" fill="#130F26"/>
<path d="M137.461 12.3672C137.392 12.3672 137.329 12.3609 137.269 12.3484C137.208 12.3359 137.156 12.3067 137.113 12.2608C137.069 12.215 137.033 12.1441 137.008 12.0503C136.981 11.9565 136.969 11.8272 136.969 11.6625C136.969 11.3748 137.008 11.1767 137.085 11.0725C137.163 10.9662 137.288 10.9141 137.461 10.9141H139.326C139.394 10.9141 139.457 10.9203 139.517 10.9328C139.578 10.9453 139.63 10.9745 139.676 11.0204C139.721 11.0663 139.759 11.1351 139.786 11.2268C139.813 11.3185 139.828 11.4457 139.828 11.6041C139.828 11.8918 139.788 12.0899 139.707 12.2004C139.628 12.3109 139.499 12.3651 139.323 12.3651H137.458L137.461 12.3672Z" fill="#130F26"/>
<path d="M142.193 10.916C142.45 10.916 142.637 10.8702 142.756 10.7784C142.877 10.6867 142.935 10.5491 142.935 10.3657C142.935 10.2135 142.873 10.0404 142.746 9.84445C142.619 9.64848 142.437 9.44417 142.2 9.2336C141.962 9.02095 141.673 8.8083 141.333 8.59148C140.993 8.37466 140.61 8.17035 140.183 7.97438V6.21063L144.523 3.90692V5.79576L142.06 6.98827V7.02996C142.452 7.27389 142.787 7.5053 143.067 7.72629C143.346 7.94519 143.581 8.15576 143.771 8.3559C143.961 8.55604 144.113 8.74576 144.223 8.92922C144.336 9.1106 144.421 9.28572 144.477 9.45459C144.536 9.62346 144.573 9.78608 144.588 9.94661C144.604 10.1071 144.613 10.2614 144.613 10.4136C144.613 10.5137 144.6 10.6304 144.577 10.7639C144.554 10.8973 144.511 11.037 144.452 11.1808C144.392 11.3247 144.309 11.4685 144.202 11.6103C144.096 11.7521 143.961 11.8792 143.794 11.9918C143.627 12.1044 143.429 12.194 143.198 12.2649C142.967 12.3358 142.692 12.3692 142.377 12.3692H139.32C139.251 12.3692 139.189 12.3629 139.128 12.3504C139.068 12.3379 139.016 12.3087 138.972 12.2628C138.928 12.217 138.893 12.1461 138.868 12.0523C138.843 11.9584 138.828 11.8292 138.828 11.6645C138.828 11.3768 138.868 11.1787 138.945 11.0745C139.022 10.9682 139.147 10.916 139.32 10.916H142.191H142.193Z" fill="#130F26"/>
<path d="M146.899 7.32812H148.554V10.0321C148.554 10.1968 148.581 10.3344 148.635 10.4491C148.689 10.5637 148.76 10.6534 148.848 10.7222C148.935 10.791 149.035 10.8389 149.148 10.8702C149.26 10.8994 149.371 10.9161 149.483 10.9161H149.598C149.658 10.9161 149.715 10.9244 149.765 10.9432C149.817 10.9619 149.862 10.9953 149.902 11.0474C149.942 11.0995 149.975 11.1704 149.998 11.258C150.021 11.3455 150.033 11.4623 150.033 11.6061C150.033 11.8709 149.996 12.0627 149.923 12.1857C149.85 12.3087 149.74 12.3692 149.596 12.3692H149.481C149.429 12.3692 149.364 12.365 149.289 12.3567C149.214 12.3483 149.133 12.3317 149.046 12.3066C148.96 12.2816 148.875 12.242 148.787 12.1899C148.702 12.1378 148.623 12.069 148.55 11.9793C148.55 13.103 148.329 13.9432 147.885 14.504C147.441 15.0648 146.739 15.3442 145.78 15.3442H145.391V13.8098H145.589C145.812 13.8098 146.005 13.7931 146.17 13.7618C146.335 13.7306 146.47 13.6618 146.578 13.5575C146.687 13.4533 146.766 13.3011 146.818 13.101C146.87 12.9008 146.895 12.636 146.895 12.3025V7.33021L146.899 7.32812Z" fill="#130F26"/>
<path d="M149.597 12.3671C149.528 12.3671 149.466 12.3608 149.406 12.3483C149.345 12.3358 149.293 12.3066 149.249 12.2608C149.205 12.2149 149.17 12.144 149.145 12.0502C149.118 11.9564 149.105 11.8271 149.105 11.6624C149.105 11.3747 149.145 11.1767 149.222 11.0724C149.299 10.9661 149.424 10.914 149.597 10.914H151.462C151.531 10.914 151.594 10.9202 151.654 10.9327C151.714 10.9452 151.767 10.9744 151.812 11.0203C151.858 11.0662 151.896 11.135 151.923 11.2267C151.95 11.3184 151.964 11.4456 151.964 11.604C151.964 11.8917 151.925 12.0898 151.844 12.2003C151.764 12.3108 151.635 12.365 151.46 12.365H149.595L149.597 12.3671Z" fill="#130F26"/>
<path d="M156.201 10.009C156.201 9.88596 156.187 9.75879 156.155 9.63162C156.126 9.50444 156.076 9.38769 156.01 9.28345C155.941 9.17921 155.855 9.09582 155.749 9.03119C155.643 8.96656 155.514 8.93529 155.364 8.93529C155.259 8.93529 155.151 8.96865 155.036 9.03328C154.922 9.09999 154.811 9.20215 154.701 9.33974C154.59 9.47734 154.486 9.65247 154.388 9.86095C154.29 10.0715 154.205 10.3196 154.134 10.6073C154.313 10.7241 154.509 10.8179 154.718 10.8929C154.928 10.968 155.141 11.0034 155.355 11.0034C155.622 11.0034 155.83 10.9263 155.978 10.772C156.126 10.6177 156.199 10.3634 156.199 10.0069M151.675 10.9159C151.788 10.9159 151.89 10.9013 151.981 10.8742C152.073 10.8471 152.161 10.797 152.242 10.7241C152.323 10.6511 152.4 10.551 152.473 10.4218C152.544 10.2925 152.619 10.1257 152.694 9.92141C152.886 9.40646 153.096 8.98741 153.323 8.66427C153.551 8.34321 153.788 8.09094 154.032 7.91165C154.276 7.73236 154.522 7.61144 154.77 7.54889C155.018 7.48635 155.257 7.45508 155.489 7.45508C155.812 7.45508 156.118 7.51345 156.405 7.63229C156.693 7.75112 156.943 7.91999 157.158 8.1389C157.372 8.3578 157.541 8.62674 157.668 8.94572C157.793 9.26261 157.858 9.62119 157.858 10.0152C157.858 10.3801 157.81 10.7136 157.714 11.0201C157.618 11.3266 157.474 11.5893 157.283 11.8123C157.091 12.0333 156.851 12.2064 156.564 12.3314C156.276 12.4544 155.943 12.517 155.564 12.517C155.224 12.517 154.882 12.469 154.538 12.369C154.195 12.271 153.836 12.0979 153.465 11.8499C153.353 11.9729 153.242 12.0688 153.132 12.1376C153.021 12.2064 152.911 12.2564 152.796 12.2897C152.682 12.3231 152.565 12.344 152.442 12.3523C152.319 12.3606 152.192 12.3648 152.054 12.3648H151.461C151.392 12.3648 151.329 12.3585 151.269 12.346C151.208 12.3335 151.156 12.3043 151.113 12.2585C151.069 12.2126 151.033 12.1417 151.008 12.0479C150.981 11.9541 150.969 11.8248 150.969 11.6601C150.969 11.3724 151.008 11.1744 151.085 11.0701C151.163 10.9638 151.288 10.9117 151.461 10.9117H151.677L151.675 10.9159Z" fill="#130F26"/>
<path d="M110.991 29.5418C110.991 29.4187 111.016 29.302 111.061 29.1936C111.109 29.0852 111.174 28.9914 111.257 28.9121C111.339 28.8329 111.434 28.7683 111.543 28.7203C111.651 28.6724 111.766 28.6474 111.891 28.6474C112.016 28.6474 112.13 28.6724 112.239 28.7203C112.347 28.7683 112.441 28.8329 112.52 28.9121C112.599 28.9914 112.664 29.0852 112.712 29.1936C112.76 29.302 112.783 29.4167 112.783 29.5418C112.783 29.6668 112.76 29.7815 112.712 29.8899C112.664 29.9983 112.599 30.0921 112.52 30.1755C112.441 30.2568 112.347 30.3236 112.239 30.3694C112.13 30.4174 112.016 30.4424 111.891 30.4424C111.766 30.4424 111.651 30.4174 111.543 30.3694C111.434 30.3215 111.341 30.2568 111.257 30.1755C111.176 30.0942 111.109 29.9983 111.061 29.8899C111.014 29.7815 110.991 29.6668 110.991 29.5418ZM108.93 29.5418C108.93 29.4187 108.955 29.302 109.001 29.1936C109.048 29.0852 109.113 28.9914 109.196 28.9121C109.278 28.8329 109.374 28.7683 109.482 28.7203C109.59 28.6724 109.705 28.6474 109.83 28.6474C109.955 28.6474 110.07 28.6724 110.178 28.7203C110.286 28.7683 110.38 28.8329 110.459 28.9121C110.538 28.9914 110.603 29.0852 110.651 29.1936C110.699 29.302 110.722 29.4167 110.722 29.5418C110.722 29.6668 110.699 29.7815 110.651 29.8899C110.603 29.9983 110.538 30.0921 110.459 30.1755C110.38 30.2568 110.286 30.3236 110.178 30.3694C110.07 30.4174 109.955 30.4424 109.83 30.4424C109.705 30.4424 109.59 30.4174 109.482 30.3694C109.374 30.3215 109.28 30.2568 109.196 30.1755C109.115 30.0942 109.048 29.9983 109.001 29.8899C108.953 29.7815 108.93 29.6668 108.93 29.5418ZM108.215 24.6967C108.215 24.9364 108.246 25.1637 108.309 25.3763C108.371 25.591 108.492 25.7766 108.671 25.935C108.851 26.0935 109.101 26.2186 109.421 26.3124C109.742 26.4062 110.159 26.4542 110.674 26.4542C111.084 26.4542 111.443 26.4354 111.743 26.3979C112.045 26.3603 112.299 26.3082 112.508 26.2415C112.716 26.1748 112.885 26.0997 113.014 26.0163C113.143 25.933 113.245 25.8454 113.316 25.7516C113.387 25.6598 113.437 25.566 113.46 25.4722C113.485 25.3784 113.495 25.2908 113.495 25.2116C113.495 25.0949 113.462 24.9948 113.393 24.9093C113.324 24.8238 113.237 24.7425 113.127 24.6696C113.016 24.5945 112.891 24.5236 112.749 24.4527C112.608 24.3819 112.462 24.3068 112.312 24.2255C112.162 24.1442 112.016 24.0504 111.874 23.9461C111.732 23.8419 111.605 23.7189 111.497 23.5771C111.387 23.4354 111.299 23.2707 111.23 23.083C111.161 22.8954 111.128 22.6744 111.128 22.4242C111.128 22.0927 111.186 21.7592 111.301 21.4256C111.418 21.092 111.591 20.7897 111.826 20.5208C112.06 20.2519 112.353 20.0329 112.708 19.8641C113.062 19.6952 113.477 19.6118 113.952 19.6118C114.108 19.6118 114.254 19.6222 114.391 19.641C114.529 19.6619 114.656 19.6848 114.773 19.7119C114.889 19.739 114.992 19.7682 115.085 19.7994C115.177 19.8286 115.252 19.8557 115.312 19.8808V21.3568C115.017 21.288 114.76 21.2442 114.546 21.2255C114.329 21.2046 114.164 21.1963 114.048 21.1963C113.829 21.1963 113.637 21.2275 113.479 21.2901C113.318 21.3526 113.185 21.4339 113.081 21.534C112.974 21.6341 112.897 21.7467 112.847 21.8697C112.797 21.9927 112.772 22.1178 112.772 22.2408C112.772 22.3638 112.808 22.468 112.876 22.5618C112.947 22.6556 113.037 22.7453 113.149 22.8287C113.262 22.9121 113.389 22.9934 113.533 23.0726C113.677 23.1497 113.825 23.2331 113.977 23.3186C114.129 23.4041 114.277 23.4979 114.421 23.598C114.564 23.698 114.691 23.8106 114.804 23.9336C114.917 24.0566 115.006 24.1984 115.077 24.3568C115.148 24.5153 115.181 24.6946 115.181 24.8926C115.181 25.1324 115.15 25.3742 115.087 25.6161C115.025 25.8579 114.925 26.0914 114.785 26.3145C114.646 26.5375 114.462 26.7481 114.237 26.942C114.012 27.1359 113.731 27.3048 113.397 27.4486C113.064 27.5925 112.672 27.705 112.226 27.7884C111.778 27.8697 111.266 27.9114 110.686 27.9114C109.915 27.9114 109.267 27.8322 108.742 27.6717C108.217 27.5111 107.792 27.2922 107.469 27.0129C107.146 26.7335 106.913 26.4041 106.773 26.0226C106.633 25.6432 106.562 25.2304 106.562 24.7863V22.7474H108.217V24.7029L108.215 24.6967Z" fill="#130F26"/>
<path d="M117.481 20.84H119.136V25.8352C119.136 26.3981 119.081 26.8734 118.973 27.257C118.865 27.6406 118.698 27.9513 118.469 28.1868C118.242 28.4224 117.954 28.5934 117.606 28.6955C117.258 28.7998 116.846 28.8519 116.366 28.8519H115.977V27.3175H116.175C116.397 27.3175 116.591 27.3008 116.756 27.2695C116.921 27.2383 117.056 27.1695 117.164 27.0652C117.273 26.961 117.352 26.8088 117.404 26.6086C117.456 26.4085 117.481 26.1437 117.481 25.8102V20.8379V20.84Z" fill="#130F26"/>
<path d="M123.617 25.1158C123.617 25.4035 123.577 25.6015 123.496 25.712C123.417 25.8225 123.292 25.8767 123.125 25.8767H122.585C122.298 25.8767 122.035 25.8455 121.798 25.7829C121.56 25.7204 121.354 25.6161 121.181 25.4702C121.008 25.3243 120.872 25.1283 120.777 24.8823C120.681 24.6363 120.633 24.3298 120.633 23.9608V17.106H122.287V23.7398C122.287 23.8878 122.3 24.0067 122.327 24.0963C122.352 24.186 122.392 24.2548 122.442 24.3027C122.492 24.3507 122.554 24.3819 122.631 24.3986C122.706 24.4153 122.796 24.4236 122.896 24.4236H123.129C123.194 24.4236 123.254 24.4299 123.315 24.4424C123.375 24.4549 123.427 24.4841 123.471 24.53C123.515 24.5758 123.55 24.6446 123.579 24.7364C123.606 24.8281 123.621 24.9553 123.621 25.1137" fill="#130F26"/>
<path d="M123.113 25.8765C123.044 25.8765 122.982 25.8702 122.921 25.8577C122.861 25.8452 122.809 25.816 122.765 25.7701C122.721 25.7243 122.686 25.6534 122.661 25.5596C122.636 25.4657 122.621 25.3365 122.621 25.1718C122.621 24.8841 122.661 24.686 122.738 24.5818C122.815 24.4755 122.94 24.4233 123.113 24.4233H124.978C125.047 24.4233 125.109 24.4296 125.17 24.4421C125.23 24.4546 125.282 24.4838 125.328 24.5297C125.374 24.5755 125.411 24.6443 125.438 24.7361C125.465 24.8278 125.48 24.955 125.48 25.1134C125.48 25.4011 125.441 25.5992 125.359 25.7097C125.28 25.8202 125.151 25.8744 124.976 25.8744H123.111L123.113 25.8765Z" fill="#130F26"/>
<path d="M124.976 25.8765C124.907 25.8765 124.845 25.8702 124.784 25.8577C124.724 25.8452 124.672 25.816 124.628 25.7701C124.584 25.7243 124.549 25.6534 124.524 25.5596C124.497 25.4657 124.484 25.3365 124.484 25.1718C124.484 24.8841 124.524 24.686 124.601 24.5818C124.678 24.4755 124.803 24.4233 124.976 24.4233H126.841C126.91 24.4233 126.972 24.4296 127.033 24.4421C127.093 24.4546 127.145 24.4838 127.191 24.5297C127.237 24.5755 127.275 24.6443 127.302 24.7361C127.329 24.8278 127.343 24.955 127.343 25.1134C127.343 25.4011 127.304 25.5992 127.223 25.7097C127.143 25.8202 127.014 25.8744 126.839 25.8744H124.974L124.976 25.8765Z" fill="#130F26"/>
<path d="M126.843 25.8765C126.775 25.8765 126.712 25.8702 126.652 25.8577C126.591 25.8452 126.539 25.816 126.495 25.7701C126.452 25.7243 126.416 25.6534 126.391 25.5596C126.366 25.4657 126.352 25.3365 126.352 25.1718C126.352 24.8841 126.391 24.686 126.468 24.5818C126.545 24.4755 126.67 24.4233 126.843 24.4233H128.708C128.777 24.4233 128.84 24.4296 128.9 24.4421C128.96 24.4546 129.013 24.4838 129.058 24.5297C129.104 24.5755 129.142 24.6443 129.169 24.7361C129.196 24.8278 129.211 24.955 129.211 25.1134C129.211 25.4011 129.171 25.5992 129.09 25.7097C129.011 25.8202 128.881 25.8744 128.706 25.8744H126.841L126.843 25.8765Z" fill="#130F26"/>
<path d="M128.707 25.8765C128.638 25.8765 128.575 25.8702 128.515 25.8577C128.454 25.8452 128.402 25.816 128.359 25.7701C128.315 25.7243 128.279 25.6534 128.254 25.5596C128.229 25.4657 128.215 25.3365 128.215 25.1718C128.215 24.8841 128.254 24.686 128.332 24.5818C128.409 24.4755 128.534 24.4233 128.707 24.4233H130.572C130.64 24.4233 130.703 24.4296 130.763 24.4421C130.824 24.4546 130.876 24.4838 130.922 24.5297C130.968 24.5755 131.005 24.6443 131.032 24.7361C131.059 24.8278 131.074 24.955 131.074 25.1134C131.074 25.4011 131.034 25.5992 130.953 25.7097C130.874 25.8202 130.745 25.8744 130.57 25.8744H128.705L128.707 25.8765Z" fill="#130F26"/>
<path d="M130.57 25.8766C130.501 25.8766 130.439 25.8704 130.378 25.8579C130.318 25.8454 130.266 25.8162 130.222 25.7703C130.178 25.7244 130.143 25.6536 130.118 25.5597C130.091 25.4659 130.078 25.3367 130.078 25.172C130.078 24.8843 130.118 24.6862 130.195 24.582C130.272 24.4756 130.397 24.4235 130.57 24.4235H132.435C132.504 24.4235 132.566 24.4298 132.627 24.4423C132.687 24.4548 132.739 24.484 132.785 24.5298C132.831 24.5757 132.868 24.6445 132.896 24.7362C132.923 24.828 132.937 24.9551 132.937 25.1136C132.937 25.4013 132.898 25.5994 132.816 25.7098C132.737 25.8203 132.608 25.8745 132.433 25.8745H130.568L130.57 25.8766Z" fill="#130F26"/>
<path d="M132.433 25.8765C132.364 25.8765 132.302 25.8702 132.241 25.8577C132.181 25.8452 132.129 25.816 132.085 25.7701C132.041 25.7243 132.006 25.6534 131.981 25.5596C131.956 25.4657 131.941 25.3365 131.941 25.1718C131.941 24.8841 131.981 24.686 132.058 24.5818C132.135 24.4755 132.26 24.4233 132.433 24.4233H134.298C134.367 24.4233 134.429 24.4296 134.49 24.4421C134.55 24.4546 134.602 24.4838 134.648 24.5297C134.694 24.5755 134.732 24.6443 134.759 24.7361C134.786 24.8278 134.8 24.955 134.8 25.1134C134.8 25.4011 134.761 25.5992 134.68 25.7097C134.6 25.8202 134.471 25.8744 134.296 25.8744H132.431L132.433 25.8765Z" fill="#130F26"/>
<path d="M134.3 25.8765C134.232 25.8765 134.169 25.8702 134.109 25.8577C134.048 25.8452 133.996 25.816 133.952 25.7701C133.909 25.7243 133.873 25.6534 133.848 25.5596C133.823 25.4657 133.809 25.3365 133.809 25.1718C133.809 24.8841 133.848 24.686 133.925 24.5818C134.002 24.4755 134.127 24.4233 134.3 24.4233H136.165C136.234 24.4233 136.297 24.4296 136.357 24.4421C136.418 24.4546 136.47 24.4838 136.515 24.5297C136.561 24.5755 136.599 24.6443 136.626 24.7361C136.653 24.8278 136.668 24.955 136.668 25.1134C136.668 25.4011 136.628 25.5992 136.547 25.7097C136.468 25.8202 136.338 25.8744 136.163 25.8744H134.298L134.3 25.8765Z" fill="#130F26"/>
<path d="M136.164 25.8765C136.095 25.8765 136.032 25.8702 135.972 25.8577C135.912 25.8452 135.859 25.816 135.816 25.7701C135.772 25.7243 135.736 25.6534 135.711 25.5596C135.684 25.4657 135.672 25.3365 135.672 25.1718C135.672 24.8841 135.711 24.686 135.789 24.5818C135.866 24.4755 135.991 24.4233 136.164 24.4233H138.029C138.097 24.4233 138.16 24.4296 138.22 24.4421C138.281 24.4546 138.333 24.4838 138.379 24.5297C138.425 24.5755 138.462 24.6443 138.489 24.7361C138.516 24.8278 138.531 24.955 138.531 25.1134C138.531 25.4011 138.491 25.5992 138.41 25.7097C138.331 25.8202 138.202 25.8744 138.027 25.8744H136.162L136.164 25.8765Z" fill="#130F26"/>
<path d="M141.547 18.657C141.547 18.534 141.572 18.4172 141.619 18.3088C141.667 18.2004 141.732 18.1066 141.813 18.0232C141.894 17.9419 141.99 17.8752 142.099 17.8272C142.207 17.7793 142.322 17.7563 142.447 17.7563C142.572 17.7563 142.686 17.7814 142.795 17.8272C142.903 17.8752 142.997 17.9398 143.076 18.0232C143.155 18.1045 143.22 18.2004 143.268 18.3088C143.316 18.4172 143.341 18.5319 143.341 18.657C143.341 18.7821 143.316 18.8967 143.268 19.0051C143.22 19.1136 143.155 19.2074 143.076 19.2908C142.997 19.3721 142.903 19.4367 142.795 19.4826C142.686 19.5284 142.572 19.5514 142.447 19.5514C142.322 19.5514 142.207 19.5284 142.099 19.4826C141.99 19.4367 141.897 19.3721 141.813 19.2908C141.732 19.2095 141.665 19.1136 141.619 19.0051C141.572 18.8967 141.547 18.7821 141.547 18.657ZM140.534 23.1372C140.534 23.3541 140.561 23.5417 140.615 23.7043C140.669 23.8669 140.742 24.0003 140.834 24.1088C140.926 24.2172 141.034 24.2964 141.161 24.3485C141.286 24.4006 141.421 24.4256 141.565 24.4256H142.29V23.3332C142.29 23.1685 142.28 23.0101 142.261 22.8558C142.24 22.7015 142.201 22.5639 142.138 22.4451C142.076 22.3242 141.99 22.2283 141.878 22.1553C141.765 22.0802 141.619 22.0448 141.44 22.0448C141.261 22.0448 141.126 22.0761 141.009 22.1386C140.892 22.2012 140.801 22.2825 140.73 22.3846C140.659 22.4868 140.609 22.6035 140.58 22.7349C140.55 22.8662 140.536 23.0017 140.536 23.1372M139.486 18.657C139.486 18.534 139.511 18.4172 139.559 18.3088C139.606 18.2004 139.671 18.1066 139.752 18.0232C139.834 17.9419 139.929 17.8752 140.038 17.8272C140.146 17.7793 140.261 17.7563 140.386 17.7563C140.511 17.7563 140.625 17.7814 140.734 17.8272C140.842 17.8752 140.936 17.9398 141.015 18.0232C141.094 18.1045 141.159 18.2004 141.207 18.3088C141.255 18.4172 141.28 18.5319 141.28 18.657C141.28 18.7821 141.255 18.8967 141.207 19.0051C141.159 19.1136 141.094 19.2074 141.015 19.2908C140.936 19.3721 140.842 19.4367 140.734 19.4826C140.625 19.5284 140.511 19.5514 140.386 19.5514C140.261 19.5514 140.146 19.5284 140.038 19.4826C139.929 19.4367 139.836 19.3721 139.752 19.2908C139.671 19.2095 139.604 19.1136 139.559 19.0051C139.511 18.8967 139.486 18.7821 139.486 18.657ZM139.144 24.4256C139.108 24.3548 139.077 24.2672 139.054 24.165C139.029 24.0629 139.01 23.9566 138.994 23.844C138.977 23.7314 138.967 23.6209 138.96 23.5083C138.954 23.3958 138.952 23.2957 138.952 23.2081C138.952 22.8766 139.008 22.5514 139.123 22.2345C139.238 21.9176 139.402 21.6341 139.621 21.386C139.84 21.1379 140.107 20.9378 140.421 20.7856C140.736 20.6334 141.098 20.5583 141.507 20.5583C141.826 20.5583 142.109 20.5979 142.355 20.6751C142.601 20.7522 142.813 20.8606 142.993 20.9961C143.172 21.1317 143.324 21.2901 143.445 21.4694C143.566 21.6487 143.664 21.8405 143.739 22.0448C143.814 22.2491 143.866 22.4555 143.897 22.6682C143.928 22.8808 143.945 23.0872 143.945 23.2915V24.4256H144.754C144.822 24.4256 144.885 24.4319 144.945 24.4444C145.006 24.4569 145.058 24.4861 145.102 24.532C145.145 24.5778 145.181 24.6466 145.206 24.7384C145.231 24.8301 145.245 24.9573 145.245 25.1157C145.245 25.4034 145.206 25.6015 145.129 25.712C145.051 25.8225 144.926 25.8767 144.754 25.8767H138.027C137.958 25.8767 137.896 25.8704 137.835 25.8579C137.775 25.8454 137.723 25.8162 137.679 25.7703C137.635 25.7245 137.6 25.6536 137.575 25.5598C137.55 25.466 137.535 25.3367 137.535 25.172C137.535 24.8843 137.575 24.6862 137.652 24.582C137.729 24.4757 137.854 24.4236 138.027 24.4236H139.142L139.144 24.4256Z" fill="#130F26"/>
<path d="M148.456 21.978C148.156 21.978 147.908 22.0155 147.71 22.0927C147.512 22.1677 147.352 22.2469 147.227 22.3262C147.306 22.4304 147.398 22.5513 147.496 22.691C147.596 22.8307 147.7 22.9724 147.808 23.1163C147.916 23.2601 148.023 23.3977 148.129 23.527C148.235 23.6563 148.333 23.7647 148.425 23.8481C148.537 23.7751 148.64 23.6854 148.733 23.575C148.827 23.4645 148.906 23.3498 148.971 23.2268C149.035 23.1038 149.085 22.9829 149.121 22.864C149.156 22.7431 149.175 22.643 149.175 22.5576C149.175 22.4971 149.167 22.4325 149.15 22.3637C149.133 22.2928 149.1 22.2303 149.048 22.174C148.996 22.1177 148.923 22.0718 148.829 22.0322C148.735 21.9947 148.61 21.9759 148.454 21.9759M145.849 24.4256C146.024 24.4256 146.212 24.4193 146.41 24.4068C146.608 24.3943 146.793 24.3734 146.97 24.3401L145.706 22.7035C145.731 22.5909 145.762 22.4742 145.803 22.3491C145.845 22.2261 145.893 22.1072 145.947 21.9947C146.001 21.8821 146.056 21.7799 146.112 21.6861C146.168 21.5923 146.224 21.5172 146.281 21.461C146.543 21.1774 146.868 20.9544 147.254 20.7959C147.639 20.6354 148.056 20.5562 148.504 20.5562C148.892 20.5562 149.231 20.6062 149.521 20.7063C149.811 20.8063 150.05 20.9377 150.238 21.1024C150.425 21.2671 150.567 21.4547 150.661 21.6653C150.755 21.8779 150.803 22.0927 150.803 22.3136C150.803 22.4575 150.778 22.6201 150.725 22.8015C150.673 22.9829 150.598 23.1705 150.5 23.3623C150.402 23.5541 150.282 23.7417 150.136 23.9252C149.99 24.1087 149.823 24.2754 149.636 24.4235H151.453C151.521 24.4235 151.584 24.4297 151.644 24.4422C151.705 24.4547 151.757 24.4839 151.801 24.5298C151.844 24.5757 151.88 24.6445 151.905 24.7362C151.93 24.8279 151.944 24.9551 151.944 25.1135C151.944 25.4012 151.905 25.5993 151.824 25.7098C151.744 25.8203 151.619 25.8745 151.453 25.8745H149.636C149.523 25.8745 149.404 25.8662 149.279 25.8474C149.154 25.8286 149.025 25.8015 148.892 25.764C148.76 25.7265 148.629 25.6785 148.5 25.6201C148.371 25.5618 148.25 25.4909 148.137 25.4075C147.762 25.5472 147.393 25.6598 147.031 25.7473C146.668 25.8328 146.295 25.8766 145.908 25.8766H144.757C144.689 25.8766 144.626 25.8703 144.566 25.8578C144.505 25.8453 144.453 25.8161 144.409 25.7703C144.366 25.7244 144.33 25.6535 144.305 25.5597C144.28 25.4659 144.266 25.3366 144.266 25.1719C144.266 24.8842 144.305 24.6862 144.382 24.5819C144.459 24.4756 144.584 24.4235 144.757 24.4235H145.853L145.849 24.4256Z" fill="#130F26"/>
<path d="M152.899 24.4256V17.1079H154.554V25.8766H151.449C151.38 25.8766 151.318 25.8704 151.257 25.8578C151.197 25.8453 151.145 25.8162 151.101 25.7703C151.057 25.7244 151.022 25.6535 150.997 25.5597C150.972 25.4659 150.957 25.3366 150.957 25.1719C150.957 24.8842 150.997 24.6862 151.074 24.5819C151.151 24.4756 151.276 24.4235 151.449 24.4235H152.899V24.4256Z" fill="#130F26"/>
<path d="M157.709 17.1099H156.055V25.8786H157.709V17.1099Z" fill="#130F26"/>
<path d="M64.7678 40.4889L63.7738 37.5931H63.7509L62.7236 40.4889H64.7678ZM64.6678 35.6479L67.6185 43.541H65.818L65.2221 41.7835H62.2714L61.6525 43.541H59.9062L62.8903 35.6479H64.6699H64.6678Z" fill="#130F26"/>
<path d="M72.2499 39.9927C72.1978 39.7717 72.1166 39.5757 72.0061 39.4069C71.8957 39.238 71.7581 39.1025 71.5914 39.0024C71.4247 38.9023 71.2247 38.8544 70.9892 38.8544C70.7537 38.8544 70.562 38.9044 70.3932 39.0024C70.2244 39.1025 70.0827 39.2359 69.9723 39.4069C69.8619 39.5757 69.7806 39.7717 69.7285 39.9927C69.6764 40.2137 69.6514 40.4451 69.6514 40.689C69.6514 40.9329 69.6764 41.1539 69.7285 41.3749C69.7806 41.5959 69.8619 41.7919 69.9723 41.9607C70.0827 42.1296 70.2224 42.2651 70.3932 42.3652C70.562 42.4653 70.7621 42.5153 70.9892 42.5153C71.2163 42.5153 71.4247 42.4653 71.5914 42.3652C71.7581 42.2651 71.8957 42.1317 72.0061 41.9607C72.1166 41.7919 72.1978 41.5959 72.2499 41.3749C72.302 41.1539 72.327 40.9246 72.327 40.689C72.327 40.4534 72.302 40.2137 72.2499 39.9927ZM69.7097 35.6479V38.5229H69.7327C69.9244 38.2289 70.1828 38.0121 70.512 37.8766C70.8392 37.7411 71.1809 37.6723 71.5352 37.6723C71.8227 37.6723 72.1061 37.7307 72.3854 37.8495C72.6646 37.9683 72.9167 38.1476 73.1418 38.3916C73.3668 38.6355 73.5481 38.9461 73.6898 39.3255C73.8295 39.705 73.9003 40.1574 73.9003 40.6807C73.9003 41.204 73.8295 41.6564 73.6898 42.0358C73.5502 42.4152 73.3668 42.7259 73.1418 42.9698C72.9167 43.2137 72.6646 43.393 72.3854 43.5118C72.1061 43.6307 71.8227 43.689 71.5352 43.689C71.1142 43.689 70.7391 43.6223 70.4078 43.491C70.0765 43.3576 69.8264 43.1324 69.6556 42.8176H69.6326V43.5473H68.1406V35.6542H69.7097V35.6479Z" fill="#130F26"/>
<path d="M78.7564 43.5412V42.7449H78.723C78.5251 43.0763 78.2667 43.3161 77.9499 43.4641C77.6332 43.6121 77.3102 43.6851 76.9768 43.6851C76.5559 43.6851 76.212 43.6309 75.9432 43.5183C75.6744 43.4078 75.4619 43.2515 75.3077 43.0492C75.1535 42.847 75.0451 42.5989 74.9805 42.3091C74.9159 42.0193 74.8867 41.6962 74.8867 41.3418V37.8268H76.4558V41.0541C76.4558 41.5252 76.5288 41.8776 76.6767 42.109C76.8247 42.3404 77.0852 42.4571 77.4623 42.4571C77.8895 42.4571 78.1979 42.33 78.3896 42.0756C78.5813 41.8213 78.6772 41.4022 78.6772 40.8206V37.8247H80.2463V43.5392H78.7543L78.7564 43.5412Z" fill="#130F26"/>
<path d="M87.9601 42.0818C88.2101 42.0818 88.4539 42.0422 88.6894 41.9609C88.9249 41.8796 89.1353 41.7462 89.3187 41.5585C89.5021 41.3709 89.65 41.1249 89.7605 40.8226C89.8709 40.5203 89.9272 40.1513 89.9272 39.7176C89.9272 39.3194 89.8876 38.9609 89.8105 38.6398C89.7334 38.3187 89.6063 38.0456 89.4292 37.8163C89.252 37.5891 89.0186 37.4139 88.7269 37.2909C88.4352 37.17 88.0768 37.1096 87.6496 37.1096H86.4118V42.0839H87.958L87.9601 42.0818ZM88.0809 35.6481C88.5894 35.6481 89.0624 35.7294 89.5 35.892C89.9376 36.0546 90.3169 36.2965 90.6378 36.6217C90.9587 36.9469 91.2087 37.3514 91.39 37.8371C91.5713 38.3229 91.6609 38.8941 91.6609 39.5509C91.6609 40.1263 91.588 40.6558 91.44 41.1437C91.2921 41.6294 91.0691 42.0505 90.7711 42.4029C90.4731 42.7573 90.1001 43.0346 89.6542 43.2368C89.2083 43.439 88.6831 43.5412 88.0788 43.5412H84.676V35.6481H88.0788H88.0809Z" fill="#130F26"/>
<path d="M94.2702 35.6479V38.6209H94.3035C94.5015 38.2894 94.7557 38.0476 95.0662 37.8975C95.3746 37.7473 95.6767 37.6702 95.9726 37.6702C96.3936 37.6702 96.7374 37.7265 97.0062 37.8412C97.275 37.9558 97.4876 38.1143 97.6418 38.3165C97.796 38.5187 97.9043 38.7668 97.9669 39.0566C98.0294 39.3485 98.0606 39.6695 98.0606 40.024V43.5389H96.4915V40.3117C96.4915 39.8405 96.4186 39.4882 96.2706 39.2567C96.1227 39.0253 95.8622 38.9086 95.4871 38.9086C95.0599 38.9086 94.7494 39.0358 94.5598 39.2901C94.3681 39.5445 94.2722 39.9635 94.2722 40.5452V43.541H92.7031V35.6479H94.2722H94.2702Z" fill="#130F26"/>
<path d="M102.811 40.7433C102.744 40.8017 102.661 40.8496 102.563 40.8809C102.463 40.9142 102.357 40.9413 102.242 40.9643C102.127 40.9872 102.009 41.0039 101.883 41.0206C101.758 41.0352 101.633 41.0539 101.508 41.0748C101.39 41.0977 101.275 41.1269 101.16 41.1623C101.046 41.1999 100.946 41.2499 100.862 41.3124C100.777 41.375 100.71 41.4542 100.658 41.5501C100.606 41.646 100.581 41.7669 100.581 41.9149C100.581 42.063 100.606 42.1735 100.658 42.2694C100.71 42.3653 100.779 42.4403 100.869 42.4966C100.956 42.5529 101.06 42.5904 101.177 42.6134C101.296 42.6363 101.417 42.6467 101.542 42.6467C101.85 42.6467 102.09 42.5946 102.261 42.4924C102.432 42.3903 102.554 42.2652 102.636 42.1213C102.717 41.9775 102.767 41.8316 102.786 41.6856C102.805 41.5376 102.813 41.4208 102.813 41.3312V40.7454L102.811 40.7433ZM99.187 39.5841C99.2099 39.2151 99.3016 38.9107 99.4642 38.6668C99.6267 38.4229 99.833 38.229 100.083 38.081C100.333 37.933 100.614 37.8287 100.929 37.7662C101.242 37.7036 101.556 37.6724 101.873 37.6724C102.161 37.6724 102.45 37.6932 102.746 37.7328C103.04 37.7724 103.309 37.8537 103.553 37.9705C103.796 38.0893 103.994 38.2519 104.149 38.4625C104.303 38.6731 104.38 38.9504 104.38 39.2964V42.2694C104.38 42.5279 104.394 42.7739 104.424 43.0095C104.453 43.2451 104.505 43.4223 104.578 43.5411H102.986C102.957 43.4535 102.932 43.3618 102.915 43.2701C102.896 43.1783 102.884 43.0845 102.875 42.9886C102.625 43.2471 102.329 43.4264 101.992 43.5307C101.652 43.6349 101.306 43.6849 100.954 43.6849C100.681 43.6849 100.427 43.6516 100.191 43.5849C99.9559 43.5182 99.7496 43.416 99.5725 43.2763C99.3954 43.1366 99.2579 42.9594 99.1578 42.7468C99.0578 42.532 99.0078 42.2777 99.0078 41.9837C99.0078 41.6585 99.0641 41.3917 99.1787 41.1832C99.2933 40.9726 99.4392 40.8058 99.6205 40.6807C99.8017 40.5557 100.008 40.4618 100.239 40.3993C100.471 40.3367 100.706 40.2867 100.942 40.2513C101.177 40.2137 101.408 40.1846 101.638 40.1637C101.865 40.1408 102.069 40.1074 102.246 40.0636C102.423 40.0199 102.563 39.9552 102.665 39.8698C102.767 39.7843 102.815 39.6613 102.809 39.4987C102.809 39.3298 102.782 39.1943 102.725 39.0942C102.669 38.9941 102.596 38.917 102.504 38.8628C102.413 38.8086 102.306 38.7711 102.184 38.7523C102.063 38.7335 101.931 38.7252 101.792 38.7252C101.483 38.7252 101.24 38.7919 101.062 38.9232C100.885 39.0567 100.783 39.2777 100.752 39.5862H99.1829L99.187 39.5841Z" fill="#130F26"/>
<path d="M109.705 39.9927C109.653 39.7717 109.572 39.5757 109.461 39.4069C109.351 39.238 109.213 39.1025 109.047 39.0024C108.88 38.9023 108.68 38.8544 108.444 38.8544C108.209 38.8544 108.017 38.9044 107.848 39.0024C107.68 39.1025 107.538 39.2359 107.428 39.4069C107.317 39.5757 107.236 39.7717 107.184 39.9927C107.132 40.2137 107.107 40.4451 107.107 40.689C107.107 40.9329 107.132 41.1539 107.184 41.3749C107.236 41.5959 107.317 41.7919 107.428 41.9607C107.538 42.1296 107.678 42.2651 107.848 42.3652C108.017 42.4653 108.217 42.5153 108.444 42.5153C108.672 42.5153 108.88 42.4653 109.047 42.3652C109.213 42.2651 109.351 42.1317 109.461 41.9607C109.572 41.7919 109.653 41.5959 109.705 41.3749C109.757 41.1539 109.782 40.9246 109.782 40.689C109.782 40.4534 109.757 40.2137 109.705 39.9927ZM107.163 35.6479V38.5229H107.186C107.377 38.2289 107.636 38.0121 107.965 37.8766C108.292 37.7411 108.634 37.6723 108.988 37.6723C109.276 37.6723 109.559 37.7307 109.838 37.8495C110.118 37.9683 110.37 38.1476 110.595 38.3916C110.82 38.6355 111.001 38.9461 111.143 39.3255C111.283 39.705 111.353 40.1574 111.353 40.6807C111.353 41.204 111.283 41.6564 111.143 42.0358C111.003 42.4152 110.82 42.7259 110.595 42.9698C110.37 43.2137 110.118 43.393 109.838 43.5118C109.559 43.6307 109.276 43.689 108.988 43.689C108.567 43.689 108.192 43.6223 107.861 43.491C107.53 43.3576 107.28 43.1324 107.109 42.8176H107.086V43.5473H105.594V35.6542H107.163V35.6479Z" fill="#130F26"/>
<path d="M113.956 43.541H112.387V37.8266H113.956V43.541ZM112.387 35.6479H113.956V36.9405H112.387V35.6479Z" fill="#130F26"/>
<path d="M63.9722 51.5012C64.3702 51.5012 64.6682 51.4137 64.8682 51.2365C65.0662 51.0592 65.1662 50.7715 65.1662 50.3733C65.1662 49.9751 65.0662 49.7125 64.8682 49.5394C64.6703 49.3664 64.3702 49.2788 63.9722 49.2788H62.0718V51.5012H63.9722ZM64.5911 47.9299C64.9453 47.9299 65.2621 47.9883 65.5476 48.1009C65.831 48.2156 66.0748 48.3719 66.2769 48.57C66.479 48.768 66.6332 48.9995 66.7416 49.2601C66.8479 49.5227 66.9021 49.8042 66.9021 50.1065C66.9021 50.5714 66.8041 50.9717 66.6082 51.3115C66.4124 51.6513 66.0956 51.9078 65.6518 52.085V52.1079C65.8643 52.1663 66.0414 52.2559 66.1811 52.3789C66.3207 52.4998 66.4353 52.6437 66.5228 52.8105C66.6124 52.9773 66.6749 53.1586 66.7166 53.3567C66.7562 53.5548 66.7854 53.7549 66.7999 53.953C66.8062 54.078 66.8145 54.2261 66.8229 54.3949C66.8291 54.5638 66.8437 54.7368 66.8625 54.9141C66.8812 55.0913 66.9104 55.258 66.95 55.4165C66.9896 55.5749 67.0521 55.7105 67.1313 55.8209H65.3975C65.3017 55.5708 65.2433 55.2726 65.2204 54.9245C65.1975 54.5784 65.1641 54.2469 65.1204 53.93C65.062 53.5172 64.937 53.2149 64.7453 53.0231C64.5536 52.8313 64.241 52.7354 63.8055 52.7354H62.0718V55.8189H60.3359V47.9258H64.589L64.5911 47.9299Z" fill="#130F26"/>
<path d="M71.6029 51.4447C71.4154 51.2383 71.1299 51.1362 70.7465 51.1362C70.4964 51.1362 70.2881 51.1779 70.1214 51.2634C69.9547 51.3488 69.8234 51.4531 69.7233 51.5782C69.6233 51.7033 69.5546 51.8367 69.5129 51.9764C69.4733 52.116 69.4483 52.2411 69.442 52.3516H71.9947C71.9218 51.9534 71.7905 51.6511 71.6029 51.4447ZM69.8296 54.4531C70.0651 54.6824 70.4048 54.795 70.8465 54.795C71.1633 54.795 71.4362 54.7158 71.6634 54.5574C71.8926 54.3989 72.0322 54.2321 72.0822 54.0549H73.4638C73.2429 54.7408 72.9033 55.2307 72.4469 55.5247C71.9905 55.8187 71.4383 55.9667 70.7903 55.9667C70.3402 55.9667 69.9359 55.8958 69.5754 55.752C69.2149 55.6081 68.9086 55.4038 68.6585 55.139C68.4085 54.8742 68.2147 54.5574 68.0792 54.1883C67.9438 53.8193 67.875 53.4149 67.875 52.9729C67.875 52.5309 67.9459 52.1473 68.0855 51.7783C68.2251 51.4093 68.4251 51.0903 68.6814 50.8214C68.9398 50.5524 69.2461 50.3398 69.6046 50.1855C69.9609 50.0312 70.3568 49.9541 70.7923 49.9541C71.2779 49.9541 71.703 50.0479 72.0635 50.2356C72.424 50.4232 72.722 50.6754 72.9533 50.9923C73.1846 51.3092 73.3534 51.6699 73.4555 52.0764C73.5576 52.4809 73.5951 52.9062 73.5659 53.3482H69.4441C69.467 53.8569 69.5941 54.2259 69.8317 54.4531" fill="#130F26"/>
<path d="M78.0491 53.0271C77.9824 53.0855 77.899 53.1334 77.8011 53.1647C77.7011 53.1981 77.5948 53.2252 77.4802 53.2481C77.3656 53.271 77.2468 53.2877 77.1218 53.3044C76.9967 53.319 76.8717 53.3377 76.7467 53.3586C76.6279 53.3815 76.5133 53.4107 76.3987 53.4462C76.2841 53.4837 76.184 53.5337 76.1007 53.5963C76.0153 53.6588 75.9486 53.738 75.8965 53.8339C75.8444 53.9298 75.8194 54.0507 75.8194 54.1988C75.8194 54.3468 75.8444 54.4573 75.8965 54.5532C75.9486 54.6491 76.0173 54.7241 76.1069 54.7804C76.1945 54.8367 76.2987 54.8742 76.4153 54.8972C76.5341 54.9201 76.655 54.9305 76.78 54.9305C77.0884 54.9305 77.3281 54.8784 77.4989 54.7763C77.6677 54.6741 77.7928 54.549 77.874 54.4052C77.9553 54.2613 78.0053 54.1154 78.0241 53.9694C78.0428 53.8214 78.0511 53.7047 78.0511 53.615V53.0292L78.0491 53.0271ZM74.4253 51.8659C74.4482 51.4969 74.5399 51.1925 74.7025 50.9486C74.865 50.7046 75.0713 50.5107 75.3213 50.3627C75.5714 50.2147 75.8527 50.1105 76.1674 50.0479C76.4799 49.9854 76.7946 49.9541 77.1113 49.9541C77.3989 49.9541 77.6886 49.9749 77.9845 50.0146C78.2783 50.0542 78.5471 50.1355 78.7909 50.2522C79.0347 50.3711 79.2327 50.5337 79.3869 50.7442C79.5411 50.9548 79.6182 51.2321 79.6182 51.5782V54.5511C79.6182 54.8096 79.6328 55.0556 79.6619 55.2912C79.6911 55.5268 79.7432 55.704 79.8161 55.8228H78.2241C78.1949 55.7353 78.1699 55.6435 78.1533 55.5518C78.1345 55.4601 78.122 55.3663 78.1137 55.2704C77.8636 55.5289 77.5677 55.7082 77.2301 55.8124C76.8905 55.9166 76.5446 55.9667 76.1924 55.9667C75.9194 55.9667 75.6652 55.9333 75.4297 55.8666C75.1942 55.7999 74.9879 55.6977 74.8108 55.5581C74.6337 55.4184 74.4962 55.2412 74.3961 55.0285C74.2961 54.8138 74.2461 54.5594 74.2461 54.2655C74.2461 53.9403 74.3024 53.6734 74.417 53.4649C74.5316 53.2544 74.6774 53.0876 74.8587 52.9625C75.0379 52.8374 75.2463 52.7436 75.4776 52.681C75.7089 52.6185 75.9444 52.5684 76.1799 52.533C76.4153 52.4955 76.6467 52.4663 76.8759 52.4454C77.103 52.4225 77.3072 52.3892 77.4843 52.3454C77.6615 52.3016 77.8011 52.237 77.9032 52.1515C78.0053 52.066 78.0532 51.943 78.047 51.7804C78.047 51.6115 78.0199 51.476 77.9636 51.3759C77.9074 51.2759 77.8344 51.1987 77.7427 51.1445C77.6511 51.0903 77.5448 51.0528 77.4218 51.034C77.301 51.0153 77.1697 51.0069 77.0301 51.0069C76.7217 51.0069 76.4779 51.0736 76.3007 51.205C76.1236 51.3384 76.0215 51.5594 75.9903 51.868H74.4211L74.4253 51.8659Z" fill="#130F26"/>
<path d="M82.448 47.9297H80.8789V55.8228H82.448V47.9297Z" fill="#130F26"/>
<path d="M92.8212 47.9297V49.3891H88.6556V51.0798H92.4794V52.4287H88.6556V54.3634H92.9087V55.8228H86.9219V47.9297H92.8212Z" fill="#130F26"/>
<path d="M95.2371 54.4029C95.3079 54.5238 95.3975 54.6238 95.508 54.701C95.6184 54.7781 95.7455 54.8365 95.8893 54.8719C96.0331 54.9095 96.1831 54.9261 96.3373 54.9261C96.4478 54.9261 96.5645 54.9136 96.6853 54.8865C96.8062 54.8615 96.9166 54.8198 97.0167 54.7656C97.1167 54.7114 97.2 54.6364 97.2646 54.5446C97.3313 54.4529 97.3647 54.3361 97.3647 54.1965C97.3647 53.9609 97.2084 53.7837 96.8958 53.6669C96.5832 53.5481 96.1456 53.4313 95.5872 53.3125C95.3579 53.2604 95.1371 53.1999 94.9183 53.1311C94.7015 53.0602 94.5078 52.9685 94.339 52.8538C94.1702 52.7392 94.0326 52.5953 93.9305 52.4223C93.8263 52.2492 93.7763 52.0366 93.7763 51.7864C93.7763 51.4174 93.8472 51.1151 93.991 50.8795C94.1347 50.6439 94.3244 50.4584 94.5598 50.3208C94.7953 50.1853 95.06 50.0894 95.3559 50.0331C95.6497 49.9768 95.9518 49.9497 96.2623 49.9497C96.5728 49.9497 96.8708 49.9789 97.1625 50.0373C97.4543 50.0956 97.7127 50.1957 97.9419 50.3354C98.1711 50.4751 98.3607 50.6627 98.5108 50.8941C98.6608 51.1255 98.7525 51.4195 98.7817 51.7739H97.2897C97.2667 51.4716 97.1542 51.2673 96.9479 51.161C96.7416 51.0547 96.4978 51.0005 96.2186 51.0005C96.131 51.0005 96.0352 51.0067 95.931 51.0171C95.8289 51.0276 95.733 51.0526 95.6497 51.088C95.5643 51.1255 95.4934 51.1777 95.433 51.2485C95.3746 51.3194 95.3454 51.4132 95.3454 51.53C95.3454 51.6697 95.3975 51.7843 95.4997 51.8719C95.6018 51.9595 95.7372 52.0324 95.9018 52.0866C96.0685 52.1429 96.2582 52.1909 96.4707 52.2367C96.6853 52.2805 96.9021 52.3285 97.1229 52.3806C97.3501 52.4327 97.5731 52.4953 97.7919 52.5682C98.0086 52.6412 98.2024 52.7392 98.3712 52.8622C98.5399 52.9831 98.6775 53.1353 98.7796 53.3146C98.8817 53.496 98.9338 53.719 98.9338 53.9838C98.9338 54.3591 98.8588 54.6739 98.7066 54.9282C98.5545 55.1826 98.3586 55.3869 98.1148 55.5412C97.871 55.6954 97.5939 55.8038 97.2813 55.8664C96.9687 55.9289 96.6499 55.9602 96.3248 55.9602C95.9998 55.9602 95.6684 55.9269 95.3517 55.8601C95.035 55.7934 94.7536 55.6829 94.5057 55.5287C94.2598 55.3744 94.0556 55.1701 93.8972 54.9157C93.7388 54.6614 93.6513 54.3424 93.6367 53.9588H95.1287C95.1287 54.1277 95.1642 54.2736 95.2329 54.3945" fill="#130F26"/>
<path d="M102.986 50.1082V51.159H101.838V53.9881C101.838 54.2528 101.881 54.43 101.971 54.5197C102.061 54.6073 102.236 54.6531 102.502 54.6531C102.59 54.6531 102.675 54.649 102.757 54.6427C102.838 54.6344 102.915 54.6239 102.988 54.6093V55.8248C102.854 55.8477 102.709 55.8623 102.546 55.8686C102.384 55.8769 102.225 55.879 102.071 55.879C101.827 55.879 101.598 55.8623 101.381 55.829C101.164 55.7956 100.973 55.731 100.806 55.6351C100.639 55.5392 100.51 55.4037 100.414 55.2264C100.318 55.0492 100.271 54.8178 100.271 54.5301V51.159H99.3203V50.1082H100.271V48.3945H101.84V50.1082H102.988H102.986Z" fill="#130F26"/>
<path d="M107.295 53.0271C107.228 53.0855 107.145 53.1334 107.047 53.1647C106.947 53.1981 106.841 53.2252 106.726 53.2481C106.612 53.271 106.493 53.2877 106.368 53.3044C106.243 53.319 106.118 53.3377 105.993 53.3586C105.874 53.3815 105.759 53.4107 105.645 53.4462C105.53 53.4837 105.43 53.5337 105.347 53.5963C105.261 53.6588 105.195 53.738 105.143 53.8339C105.09 53.9298 105.065 54.0507 105.065 54.1988C105.065 54.3468 105.09 54.4573 105.143 54.5532C105.195 54.6491 105.263 54.7241 105.353 54.7804C105.441 54.8367 105.545 54.8742 105.661 54.8972C105.78 54.9201 105.901 54.9305 106.026 54.9305C106.335 54.9305 106.574 54.8784 106.745 54.7763C106.914 54.6741 107.039 54.549 107.12 54.4052C107.201 54.2613 107.251 54.1154 107.27 53.9694C107.289 53.8214 107.297 53.7047 107.297 53.615V53.0292L107.295 53.0271ZM103.671 51.8659C103.694 51.4969 103.786 51.1925 103.949 50.9486C104.111 50.7046 104.317 50.5107 104.567 50.3627C104.817 50.2147 105.099 50.1105 105.413 50.0479C105.726 49.9854 106.041 49.9541 106.357 49.9541C106.645 49.9541 106.935 49.9749 107.231 50.0146C107.524 50.0542 107.793 50.1355 108.037 50.2522C108.281 50.3711 108.479 50.5337 108.633 50.7442C108.787 50.9548 108.864 51.2321 108.864 51.5782V54.5511C108.864 54.8096 108.879 55.0556 108.908 55.2912C108.937 55.5268 108.989 55.704 109.062 55.8228H107.47C107.441 55.7353 107.416 55.6435 107.399 55.5518C107.381 55.4601 107.368 55.3663 107.36 55.2704C107.11 55.5289 106.814 55.7082 106.476 55.8124C106.137 55.9166 105.791 55.9667 105.438 55.9667C105.165 55.9667 104.911 55.9333 104.676 55.8666C104.44 55.7999 104.234 55.6977 104.057 55.5581C103.88 55.4184 103.742 55.2412 103.642 55.0285C103.542 54.8138 103.492 54.5594 103.492 54.2655C103.492 53.9403 103.548 53.6734 103.663 53.4649C103.778 53.2544 103.924 53.0876 104.105 52.9625C104.286 52.8374 104.492 52.7436 104.724 52.681C104.955 52.6185 105.19 52.5684 105.426 52.533C105.661 52.4955 105.893 52.4663 106.122 52.4454C106.349 52.4225 106.553 52.3892 106.73 52.3454C106.908 52.3016 107.047 52.237 107.149 52.1515C107.251 52.066 107.299 51.943 107.293 51.7804C107.293 51.6115 107.266 51.476 107.21 51.3759C107.153 51.2759 107.081 51.1987 106.989 51.1445C106.897 51.0903 106.791 51.0528 106.668 51.034C106.547 51.0153 106.416 51.0069 106.276 51.0069C105.968 51.0069 105.724 51.0736 105.547 51.205C105.37 51.3384 105.268 51.5594 105.236 51.868H103.667L103.671 51.8659Z" fill="#130F26"/>
<path d="M113.216 50.1082V51.159H112.068V53.9881C112.068 54.2528 112.112 54.43 112.201 54.5197C112.289 54.6073 112.466 54.6531 112.733 54.6531C112.82 54.6531 112.906 54.649 112.987 54.6427C113.068 54.6344 113.145 54.6239 113.218 54.6093V55.8248C113.085 55.8477 112.939 55.8623 112.777 55.8686C112.614 55.8769 112.456 55.879 112.301 55.879C112.058 55.879 111.828 55.8623 111.612 55.829C111.395 55.7956 111.203 55.731 111.037 55.6351C110.87 55.5392 110.741 55.4037 110.645 55.2264C110.549 55.0492 110.501 54.8178 110.501 54.5301V51.159H109.551V50.1082H110.501V48.3945H112.07V50.1082H113.218H113.216Z" fill="#130F26"/>
<path d="M117.423 51.4447C117.235 51.2383 116.95 51.1362 116.567 51.1362C116.316 51.1362 116.108 51.1779 115.941 51.2634C115.775 51.3488 115.643 51.4531 115.543 51.5782C115.443 51.7033 115.375 51.8367 115.333 51.9764C115.293 52.116 115.268 52.2411 115.262 52.3516H117.815C117.742 51.9534 117.611 51.6511 117.423 51.4447ZM115.652 54.4531C115.887 54.6824 116.227 54.795 116.669 54.795C116.985 54.795 117.258 54.7158 117.486 54.5574C117.715 54.3989 117.854 54.2321 117.906 54.0549H119.288C119.067 54.7408 118.727 55.2307 118.271 55.5247C117.815 55.8187 117.263 55.9667 116.614 55.9667C116.164 55.9667 115.76 55.8958 115.4 55.752C115.039 55.6081 114.733 55.4038 114.483 55.139C114.233 54.8742 114.039 54.5574 113.903 54.1883C113.768 53.8193 113.699 53.4149 113.699 52.9729C113.699 52.5309 113.77 52.1473 113.91 51.7783C114.049 51.4093 114.249 51.0903 114.506 50.8214C114.764 50.5524 115.07 50.3398 115.429 50.1855C115.785 50.0312 116.181 49.9541 116.617 49.9541C117.102 49.9541 117.525 50.0479 117.888 50.2356C118.248 50.4232 118.546 50.6754 118.777 50.9923C119.009 51.3092 119.178 51.6699 119.28 52.0764C119.382 52.4809 119.419 52.9062 119.39 53.3482H115.268C115.291 53.8569 115.418 54.2259 115.656 54.4531" fill="#130F26"/>
<path d="M128.61 50.0377C128.506 49.8709 128.379 49.727 128.223 49.6019C128.069 49.4768 127.894 49.3789 127.698 49.308C127.502 49.2371 127.298 49.2037 127.085 49.2037C126.695 49.2037 126.362 49.2788 126.091 49.431C125.818 49.5832 125.597 49.7854 125.428 50.0397C125.26 50.2941 125.135 50.5839 125.057 50.907C124.98 51.2302 124.941 51.5658 124.941 51.9119C124.941 52.258 124.98 52.5665 125.057 52.8792C125.135 53.192 125.258 53.4755 125.428 53.7257C125.597 53.9759 125.818 54.1781 126.091 54.3282C126.364 54.4804 126.695 54.5554 127.085 54.5554C127.616 54.5554 128.029 54.3928 128.329 54.0697C128.627 53.7444 128.81 53.3171 128.875 52.7875H130.555C130.511 53.2816 130.396 53.7278 130.213 54.126C130.029 54.5242 129.786 54.8619 129.483 55.1433C129.181 55.4248 128.827 55.6374 128.423 55.7855C128.019 55.9335 127.573 56.0065 127.085 56.0065C126.481 56.0065 125.937 55.9022 125.455 55.6917C124.972 55.4811 124.566 55.1934 124.234 54.8244C123.903 54.4554 123.649 54.0238 123.472 53.5255C123.295 53.0273 123.207 52.4915 123.207 51.9161C123.207 51.3407 123.295 50.7798 123.472 50.2753C123.649 49.7708 123.903 49.3309 124.234 48.9536C124.566 48.5783 124.972 48.2822 125.455 48.0696C125.937 47.8569 126.481 47.7485 127.085 47.7485C127.521 47.7485 127.931 47.8111 128.317 47.9362C128.704 48.0613 129.05 48.2447 129.354 48.4824C129.661 48.7221 129.913 49.0182 130.111 49.3726C130.309 49.727 130.434 50.1315 130.486 50.588H128.806C128.777 50.39 128.71 50.2065 128.608 50.0418" fill="#130F26"/>
<path d="M135.023 51.4447C134.835 51.2383 134.55 51.1362 134.166 51.1362C133.916 51.1362 133.708 51.1779 133.541 51.2634C133.374 51.3488 133.243 51.4531 133.143 51.5782C133.043 51.7033 132.974 51.8367 132.933 51.9764C132.893 52.116 132.868 52.2411 132.862 52.3516H135.415C135.342 51.9534 135.21 51.6511 135.023 51.4447ZM133.249 54.4531C133.485 54.6824 133.825 54.795 134.266 54.795C134.583 54.795 134.856 54.7158 135.083 54.5574C135.312 54.3989 135.452 54.2321 135.504 54.0549H136.886C136.665 54.7408 136.325 55.2307 135.869 55.5247C135.412 55.8187 134.86 55.9667 134.212 55.9667C133.762 55.9667 133.358 55.8958 132.997 55.752C132.637 55.6081 132.33 55.4038 132.08 55.139C131.83 54.8742 131.637 54.5574 131.501 54.1883C131.366 53.8193 131.297 53.4149 131.297 52.9729C131.297 52.5309 131.368 52.1473 131.507 51.7783C131.647 51.4093 131.847 51.0903 132.103 50.8214C132.362 50.5524 132.668 50.3398 133.026 50.1855C133.383 50.0312 133.779 49.9541 134.214 49.9541C134.7 49.9541 135.123 50.0479 135.485 50.2356C135.846 50.4232 136.144 50.6754 136.375 50.9923C136.606 51.3092 136.775 51.6699 136.877 52.0764C136.979 52.4809 137.017 52.9062 136.988 53.3482H132.866C132.889 53.8569 133.016 54.2259 133.254 54.4531" fill="#130F26"/>
<path d="M139.402 50.1084V50.9048H139.435C139.633 50.5733 139.892 50.3315 140.208 50.1813C140.525 50.0312 140.848 49.9541 141.181 49.9541C141.6 49.9541 141.946 50.0125 142.215 50.1251C142.484 50.2397 142.696 50.3982 142.851 50.6004C143.005 50.8026 143.113 51.0507 143.178 51.3405C143.24 51.6324 143.272 51.9534 143.272 52.3078V55.8228H141.702V52.5956C141.702 52.1244 141.63 51.7721 141.482 51.5406C141.334 51.3092 141.073 51.1925 140.698 51.1925C140.271 51.1925 139.96 51.3197 139.771 51.574C139.579 51.8283 139.483 52.2474 139.483 52.829V55.8249H137.914V50.1105H139.406L139.402 50.1084Z" fill="#130F26"/>
<path d="M147.603 50.1083V51.1591H146.455V53.9882C146.455 54.2529 146.499 54.4301 146.588 54.5198C146.678 54.6073 146.853 54.6532 147.12 54.6532C147.207 54.6532 147.293 54.649 147.374 54.6428C147.455 54.6345 147.532 54.624 147.605 54.6094V55.8249C147.472 55.8478 147.326 55.8624 147.163 55.8687C147.001 55.877 146.843 55.8791 146.688 55.8791C146.445 55.8791 146.215 55.8624 145.999 55.829C145.782 55.7957 145.59 55.7311 145.423 55.6352C145.257 55.5393 145.128 55.4037 145.032 55.2265C144.936 55.0493 144.888 54.8179 144.888 54.5302V51.1591H143.938V50.1083H144.888V48.3946H146.457V50.1083H147.605H147.603Z" fill="#130F26"/>
<path d="M149.844 50.1084V51.1695H149.867C149.939 50.9923 150.039 50.8297 150.164 50.6775C150.29 50.5274 150.433 50.3982 150.596 50.2898C150.758 50.1834 150.931 50.1 151.115 50.0417C151.298 49.9833 151.49 49.9541 151.69 49.9541C151.792 49.9541 151.907 49.9729 152.032 50.0104V51.4698C151.959 51.4552 151.869 51.4427 151.767 51.4301C151.665 51.4197 151.565 51.4135 151.469 51.4135C151.181 51.4135 150.938 51.4614 150.74 51.5573C150.542 51.6532 150.381 51.7846 150.258 51.9493C150.137 52.116 150.05 52.3078 149.998 52.5309C149.946 52.7519 149.921 52.9917 149.921 53.2502V55.8249H148.352V50.1105H149.844V50.1084Z" fill="#130F26"/>
<path d="M155.904 51.4447C155.716 51.2383 155.431 51.1362 155.047 51.1362C154.797 51.1362 154.589 51.1779 154.422 51.2634C154.255 51.3488 154.124 51.4531 154.024 51.5782C153.924 51.7033 153.855 51.8367 153.814 51.9764C153.774 52.116 153.749 52.2411 153.743 52.3516H156.295C156.223 51.9534 156.091 51.6511 155.904 51.4447ZM154.13 54.4531C154.366 54.6824 154.706 54.795 155.147 54.795C155.464 54.795 155.737 54.7158 155.964 54.5574C156.193 54.3989 156.333 54.2321 156.383 54.0549H157.765C157.544 54.7408 157.204 55.2307 156.748 55.5247C156.291 55.8187 155.739 55.9667 155.091 55.9667C154.641 55.9667 154.237 55.8958 153.876 55.752C153.516 55.6081 153.209 55.4038 152.959 55.139C152.709 54.8742 152.515 54.5574 152.38 54.1883C152.245 53.8193 152.176 53.4149 152.176 52.9729C152.176 52.5309 152.247 52.1473 152.386 51.7783C152.526 51.4093 152.726 51.0903 152.982 50.8214C153.241 50.5524 153.547 50.3398 153.905 50.1855C154.262 50.0312 154.658 49.9541 155.093 49.9541C155.579 49.9541 156.004 50.0479 156.364 50.2356C156.725 50.4232 157.023 50.6754 157.254 50.9923C157.485 51.3092 157.654 51.6699 157.756 52.0764C157.858 52.4809 157.896 52.9062 157.867 53.3482H153.745C153.768 53.8569 153.895 54.2259 154.132 54.4531" fill="#130F26"/>
<path d="M21.2529 35.1686H31.5678V31.7266H21.2529V35.1686ZM31.5678 24.8446H52.1996V21.4026H31.5678V24.8446ZM21.2529 28.2867H31.5678V24.8446H21.2529V28.2867ZM0 3.60046V55.8249H31.5678V52.387L3.44038 52.3829V7.04248H52.1996V3.60046H0ZM21.2529 21.4026H31.5678V17.9606H21.2529V21.4026ZM52.1996 48.9367H31.5678V52.3787H52.1996V48.9367ZM52.1996 35.1686H31.5678V38.6106H52.1996V35.1686ZM52.1996 42.0527H31.5678V45.4947H52.1996V42.0527ZM21.2529 42.0527H31.5678V38.6106H21.2529V42.0527ZM21.2529 48.9367H31.5678V45.4947H21.2529V48.9367ZM52.1996 28.2867H31.5678V31.7287H52.1996V28.2867Z" fill="#ACA261"/>
<path d="M175.56 52.3829V7.04248H165.578V3.60046H179V55.8249H165.578V52.3829H175.56Z" fill="#ACA261"/>
</svg>
